<svg width="1440" height="1014" viewBox="0 0 1440 1014" fill="none" xmlns="http://www.w3.org/2000/svg">
<path d="M0.355148 0H1440V685.579C1440 685.579 1459.23 888.972 1360.5 877.5C1267.13 866.651 1309.53 708.501 1220.55 714.532C1149.07 719.377 1209.47 970.416 1108 936C1023.52 907.348 1045.74 786.409 957.619 794.835C875.139 802.722 911.721 976.811 834 1008C705.871 1059.42 787 750.009 650.195 760.419C590 765 573 892.5 518.5 892.5C404.788 892.5 488.235 643.992 382.261 665.913C290.783 684.836 391.332 1044.4 248.794 985.486C162.584 949.855 202.305 811.769 126.324 794.835C50.3429 777.9 147.319 985.486 7.35342 985.486C4.98935 985.486 2.65671 985.442 0.355164 985.353C-340.194 972.299 0.355148 0 0.355148 0Z" fill="#D9F4FF"/>
</svg>
