<svg width="71" height="71" viewBox="0 0 71 71" fill="none" xmlns="http://www.w3.org/2000/svg">
<g id="Group 11094">
<circle id="Ellipse 49" cx="35.6249" cy="35.6314" r="34.7819" fill="#D9F4FF"/>
<path id="Vector" d="M42.3371 32.6036C41.8516 32.6036 41.3861 32.4107 41.0428 32.0674C40.6995 31.7242 40.5067 31.2586 40.5067 30.7731C40.5067 30.2876 40.6995 29.8221 41.0428 29.4788C41.3861 29.1355 41.8516 28.9427 42.3371 28.9427H48.4386C48.9241 28.9427 49.3897 29.1355 49.7329 29.4788C50.0762 29.8221 50.2691 30.2876 50.2691 30.7731V36.8746C50.2691 37.3601 50.0762 37.8257 49.7329 38.1689C49.3897 38.5122 48.9241 38.7051 48.4386 38.7051C47.9532 38.7051 47.4876 38.5122 47.1443 38.1689C46.801 37.8257 46.6082 37.3601 46.6082 36.8746V35.1906L41.6952 40.1035C40.8943 40.9039 39.8084 41.3534 38.6762 41.3534C37.544 41.3534 36.4581 40.9039 35.6572 40.1035L31.7864 36.2327C31.7297 36.1759 31.6624 36.1308 31.5883 36.1001C31.5141 36.0693 31.4347 36.0535 31.3544 36.0535C31.2741 36.0535 31.1947 36.0693 31.1206 36.1001C31.0464 36.1308 30.9791 36.1759 30.9224 36.2327L25.3261 41.829C24.9791 42.1524 24.5202 42.3284 24.046 42.32C23.5718 42.3117 23.1193 42.1196 22.7839 41.7842C22.4486 41.4488 22.2565 40.9964 22.2481 40.5221C22.2397 40.0479 22.4157 39.589 22.7391 39.242L28.3354 33.6457C29.1363 32.8454 30.2222 32.3958 31.3544 32.3958C32.4866 32.3958 33.5725 32.8454 34.3734 33.6457L38.2442 37.5165C38.3009 37.5733 38.3682 37.6184 38.4424 37.6492C38.5165 37.6799 38.596 37.6957 38.6762 37.6957C38.7565 37.6957 38.8359 37.6799 38.9101 37.6492C38.9842 37.6184 39.0515 37.5733 39.1082 37.5165L44.0187 32.6036H42.3371Z" fill="#131049"/>
</g>
</svg>
