<svg width="1440" height="401" viewBox="0 0 1440 401" fill="none" xmlns="http://www.w3.org/2000/svg">
<g clip-path="url(#clip0_3_292)">
<path d="M-1.64496 0H1438V72.5792C1438 72.5792 1457.23 275.972 1358.5 264.5C1265.13 253.651 1307.53 95.5007 1218.55 101.532C1147.07 106.377 1207.47 357.416 1106 323C1021.52 294.348 1043.74 173.409 955.619 181.835C873.139 189.722 909.721 363.811 832 395C703.871 446.418 785 137.009 648.195 147.419C588 152 571 279.5 516.5 279.5C402.788 279.5 486.235 30.9918 380.261 52.9132C288.784 71.8359 389.332 431.398 246.794 372.486C160.584 336.855 200.305 198.769 124.324 181.835C48.3429 164.9 145.319 372.486 5.35345 372.486C2.98938 372.486 0.656737 372.442 -1.64481 372.353C-342.194 359.299 -1.64496 0 -1.64496 0Z" fill="#D9F4FF"/>
</g>
<defs>
<clipPath id="clip0_3_292">
<rect width="1440" height="401" fill="white"/>
</clipPath>
</defs>
</svg>
