<svg width="71" height="71" viewBox="0 0 71 71" fill="none" xmlns="http://www.w3.org/2000/svg">
<g id="Group 11094">
<circle id="Ellipse 49" cx="35.6317" cy="35.6314" r="34.7819" fill="#FDCED0"/>
<path id="Vector" d="M42.343 32.6036C41.8575 32.6036 41.3919 32.4107 41.0486 32.0674C40.7054 31.7242 40.5125 31.2586 40.5125 30.7731C40.5125 30.2876 40.7054 29.8221 41.0486 29.4788C41.3919 29.1355 41.8575 28.9427 42.343 28.9427H48.4445C48.9299 28.9427 49.3955 29.1355 49.7388 29.4788C50.0821 29.8221 50.2749 30.2876 50.2749 30.7731V36.8746C50.2749 37.3601 50.0821 37.8257 49.7388 38.1689C49.3955 38.5122 48.9299 38.7051 48.4445 38.7051C47.959 38.7051 47.4934 38.5122 47.1502 38.1689C46.8069 37.8257 46.614 37.3601 46.614 36.8746V35.1906L41.7011 40.1035C40.9002 40.9039 39.8143 41.3534 38.6821 41.3534C37.5498 41.3534 36.4639 40.9039 35.663 40.1035L31.7922 36.2327C31.7356 36.1759 31.6682 36.1308 31.5941 36.1001C31.52 36.0693 31.4405 36.0535 31.3603 36.0535C31.28 36.0535 31.2005 36.0693 31.1264 36.1001C31.0523 36.1308 30.985 36.1759 30.9283 36.2327L25.332 41.829C24.985 42.1524 24.526 42.3284 24.0518 42.32C23.5776 42.3117 23.1252 42.1196 22.7898 41.7842C22.4544 41.4488 22.2623 40.9964 22.2539 40.5221C22.2456 40.0479 22.4216 39.589 22.7449 39.242L28.3412 33.6457C29.1421 32.8454 30.228 32.3958 31.3603 32.3958C32.4925 32.3958 33.5784 32.8454 34.3793 33.6457L38.2501 37.5165C38.3068 37.5733 38.3741 37.6184 38.4482 37.6492C38.5223 37.6799 38.6018 37.6957 38.6821 37.6957C38.7623 37.6957 38.8418 37.6799 38.9159 37.6492C38.99 37.6184 39.0574 37.5733 39.1141 37.5165L44.0245 32.6036H42.343Z" fill="#131049"/>
</g>
</svg>
